<svg version="1.1" xmlns="http://www.w3.org/2000/svg" xmlns:xlink="http://www.w3.org/1999/xlink">

  <defs>
    <style>
      g {
        display: none;
      }
      g:target,
      g:target g {
        display: inline;
      }
      .white {
        color: #ffffff;
      }
      .gray {
        color: #777777;
      }
    </style>

    <symbol id="icon-menu" viewBox="0.5 30.5 30 25">
      <title>Icon-Menu</title>
      <path fill="currentColor" d="M29.696 34.223H1.304a.8.8 0 0 1-.804-.797v-2.128c0-.44.36-.798.804-.798h28.393a.8.8 0 0 1 .804.798v2.128a.802.802 0 0 1-.805.797zm0 10.638H1.304a.8.8 0 0 1-.804-.797v-2.129c0-.439.36-.797.804-.797h28.393a.8.8 0 0 1 .804.797v2.129a.802.802 0 0 1-.805.797zm0 10.639H1.304a.8.8 0 0 1-.804-.798v-2.128c0-.44.36-.798.804-.798h28.393a.8.8 0 0 1 .804.798v2.128a.801.801 0 0 1-.805.798z"/>
    </symbol>
    <symbol id="icon-fb" viewBox="0.5 30.5 30 25">
      <title>Icon-Fb</title>
      <path fill="currentColor" d="M30 3.214v23.572A3.214 3.214 0 0 1 26.786 30h-5.713V18.134h4.059l.582-4.527h-4.641v-2.893c0-1.312.362-2.203 2.244-2.203h2.396V4.466c-.415-.053-1.834-.181-3.495-.181-3.455 0-5.826 2.109-5.826 5.987v3.341h-4.071v4.527h4.078V30H3.214A3.215 3.215 0 0 1 0 26.786V3.214A3.215 3.215 0 0 1 3.214 0h23.572A3.215 3.215 0 0 1 30 3.214z"/>
    </symbol>
  </defs>

  <!-- <g id="language-passive">
    <use class="black" xlink:href="#language"/>
  </g> -->

</svg>
