<?xml version="1.0" encoding="utf-8"?>
<!-- Generator: Adobe Illustrator 16.0.0, SVG Export Plug-In . SVG Version: 6.00 Build 0)  -->
<!DOCTYPE svg PUBLIC "-//W3C//DTD SVG 1.1//EN" "http://www.w3.org/Graphics/SVG/1.1/DTD/svg11.dtd">
<svg version="1.1" id="Ebene_1" xmlns="http://www.w3.org/2000/svg" xmlns:xlink="http://www.w3.org/1999/xlink" x="0px" y="0px"
	 width="278px" height="120px" viewBox="0 0 278 120" enable-background="new 0 0 278 120" xml:space="preserve">
<rect x="110" y="50" fill="#FFFFFF" width="141" height="40"/>
<rect y="90" fill="#FFFFFF" width="106" height="30"/>
<rect fill="#FFFFFF" width="278" height="50"/>
<g>
	<path fill="#B3B3B3" d="M10.601,25.034l16.702-8.603v2.483L13.229,25.97v0.072l14.074,7.055v2.484l-16.702-8.603V25.034z"/>
	<path fill="#B3B3B3" d="M34.756,28.706l-0.072-0.936c-0.216-1.944,0.432-4.067,2.231-6.227c1.62-1.908,2.52-3.312,2.52-4.932
		c0-1.835-1.152-3.06-3.419-3.096c-1.296,0-2.736,0.432-3.636,1.116l-0.864-2.268c1.188-0.864,3.239-1.439,5.147-1.439
		c4.14,0,6.011,2.556,6.011,5.291c0,2.448-1.368,4.211-3.095,6.263c-1.584,1.872-2.16,3.456-2.052,5.292l0.036,0.936H34.756z
		 M33.965,33.745c0-1.332,0.899-2.268,2.16-2.268c1.26,0,2.124,0.936,2.124,2.268c0,1.26-0.828,2.232-2.16,2.232
		C34.829,35.977,33.965,35.005,33.965,33.745z"/>
	<path fill="#B3B3B3" d="M46.924,23.846c0-2.232-0.072-4.032-0.144-5.688h2.843l0.144,2.988h0.072
		c1.296-2.124,3.348-3.384,6.191-3.384c4.211,0,7.379,3.563,7.379,8.855c0,6.263-3.816,9.359-7.919,9.359
		c-2.304,0-4.32-1.008-5.364-2.736h-0.072v9.467h-3.132V23.846z M50.056,28.489c0,0.468,0.072,0.9,0.144,1.296
		c0.576,2.196,2.483,3.708,4.751,3.708c3.348,0,5.291-2.735,5.291-6.731c0-3.492-1.835-6.479-5.183-6.479
		c-2.16,0-4.175,1.547-4.788,3.923c-0.108,0.396-0.216,0.864-0.216,1.296V28.489z"/>
	<path fill="#B3B3B3" d="M67.408,10.024h3.168v10.871h0.072c0.504-0.9,1.296-1.692,2.268-2.232c0.936-0.54,2.052-0.9,3.24-0.9
		c2.34,0,6.083,1.44,6.083,7.451v10.367H79.07V25.574c0-2.808-1.044-5.183-4.031-5.183c-2.052,0-3.671,1.439-4.248,3.167
		c-0.18,0.432-0.216,0.9-0.216,1.512v10.511h-3.168V10.024z"/>
	<path fill="#B3B3B3" d="M87.388,23.846c0-2.232-0.072-4.032-0.144-5.688h2.843l0.144,2.988h0.072
		c1.296-2.124,3.348-3.384,6.191-3.384c4.211,0,7.379,3.563,7.379,8.855c0,6.263-3.816,9.359-7.919,9.359
		c-2.304,0-4.32-1.008-5.364-2.736H90.52v9.467h-3.132V23.846z M90.52,28.489c0,0.468,0.072,0.9,0.144,1.296
		c0.576,2.196,2.483,3.708,4.751,3.708c3.348,0,5.291-2.735,5.291-6.731c0-3.492-1.835-6.479-5.183-6.479
		c-2.16,0-4.175,1.547-4.788,3.923c-0.108,0.396-0.216,0.864-0.216,1.296V28.489z"/>
	<path fill="#666666" d="M127.922,34.933c-0.828,0.432-2.664,1.008-5.003,1.008c-5.255,0-8.675-3.563-8.675-8.891
		c0-5.363,3.672-9.251,9.359-9.251c1.871,0,3.527,0.468,4.391,0.9l-0.72,2.448c-0.756-0.432-1.943-0.828-3.671-0.828
		c-3.996,0-6.156,2.952-6.156,6.587c0,4.031,2.592,6.515,6.047,6.515c1.8,0,2.987-0.468,3.888-0.864L127.922,34.933z"/>
	<path fill="#666666" d="M147.181,26.726c0,6.443-4.463,9.251-8.675,9.251c-4.716,0-8.351-3.456-8.351-8.963
		c0-5.831,3.815-9.251,8.639-9.251C143.797,17.763,147.181,21.398,147.181,26.726z M133.358,26.906c0,3.815,2.196,6.695,5.291,6.695
		c3.024,0,5.292-2.843,5.292-6.767c0-2.952-1.476-6.695-5.22-6.695C134.979,20.139,133.358,23.594,133.358,26.906z"/>
	<path fill="#666666" d="M166.225,10.024v21.057c0,1.548,0.036,3.312,0.144,4.5h-2.843l-0.145-3.023h-0.072
		c-0.972,1.943-3.096,3.419-5.938,3.419c-4.212,0-7.451-3.563-7.451-8.855c-0.036-5.795,3.563-9.359,7.811-9.359
		c2.664,0,4.464,1.26,5.256,2.664h0.071V10.024H166.225z M163.057,25.25c0-0.396-0.036-0.936-0.144-1.332
		c-0.468-2.016-2.196-3.671-4.571-3.671c-3.275,0-5.22,2.879-5.22,6.731c0,3.528,1.728,6.443,5.147,6.443
		c2.124,0,4.067-1.404,4.644-3.78c0.107-0.432,0.144-0.864,0.144-1.368V25.25z"/>
	<path fill="#666666" d="M175.011,13.263c0.036,1.08-0.756,1.944-2.016,1.944c-1.116,0-1.908-0.864-1.908-1.944
		c0-1.116,0.828-1.979,1.98-1.979C174.255,11.284,175.011,12.147,175.011,13.263z M171.483,35.581V18.159h3.167v17.422H171.483z"/>
	<path fill="#666666" d="M179.907,22.874c0-1.8-0.036-3.275-0.145-4.715h2.808l0.181,2.88h0.071c0.864-1.656,2.88-3.276,5.76-3.276
		c2.411,0,6.155,1.44,6.155,7.415v10.403h-3.168V25.538c0-2.808-1.044-5.147-4.031-5.147c-2.088,0-3.708,1.476-4.247,3.239
		c-0.145,0.396-0.217,0.936-0.217,1.476v10.475h-3.167V22.874z"/>
	<path fill="#666666" d="M214.896,18.159c-0.072,1.26-0.144,2.664-0.144,4.788v10.115c0,3.995-0.792,6.443-2.484,7.955
		c-1.691,1.583-4.139,2.087-6.335,2.087c-2.088,0-4.392-0.504-5.795-1.44l0.792-2.412c1.151,0.72,2.951,1.368,5.111,1.368
		c3.239,0,5.615-1.692,5.615-6.083v-1.944h-0.072c-0.972,1.62-2.844,2.916-5.543,2.916c-4.319,0-7.415-3.672-7.415-8.495
		c0-5.903,3.852-9.251,7.847-9.251c3.023,0,4.68,1.584,5.436,3.024h0.071l0.145-2.628H214.896z M211.621,25.034
		c0-0.54-0.036-1.008-0.18-1.439c-0.576-1.836-2.124-3.348-4.428-3.348c-3.023,0-5.184,2.556-5.184,6.587
		c0,3.42,1.728,6.263,5.147,6.263c1.943,0,3.708-1.224,4.392-3.239c0.18-0.54,0.252-1.152,0.252-1.692V25.034z"/>
	<path fill="#B3B3B3" d="M217.994,40.008c0.792-2.124,1.764-5.975,2.159-8.603l3.492-0.36c-0.864,3.06-2.448,7.055-3.456,8.747
		L217.994,40.008z M219.542,21.039c0-1.332,0.899-2.268,2.123-2.268c1.296,0,2.124,0.936,2.124,2.268
		c0,1.26-0.828,2.231-2.124,2.231C220.405,23.27,219.542,22.298,219.542,21.039z"/>
	<path fill="#B3B3B3" d="M237.54,28.706l-0.072-0.936c-0.216-1.944,0.433-4.067,2.232-6.227c1.619-1.908,2.52-3.312,2.52-4.932
		c0-1.835-1.152-3.06-3.42-3.096c-1.296,0-2.735,0.432-3.636,1.116l-0.863-2.268c1.188-0.864,3.239-1.439,5.147-1.439
		c4.14,0,6.011,2.556,6.011,5.291c0,2.448-1.367,4.211-3.096,6.263c-1.583,1.872-2.159,3.456-2.052,5.292l0.036,0.936H237.54z
		 M236.748,33.745c0-1.332,0.9-2.268,2.16-2.268s2.124,0.936,2.124,2.268c0,1.26-0.828,2.232-2.16,2.232
		C237.612,35.977,236.748,35.005,236.748,33.745z"/>
	<path fill="#B3B3B3" d="M266.158,27.014l-16.701,8.567v-2.484l14.182-7.055V25.97l-14.182-7.055v-2.483l16.701,8.567V27.014z"/>
</g>
<g>
	<path fill="#666666" d="M122.703,58.739h3.131v16.233c0,6.443-3.167,8.423-7.343,8.423c-1.152,0-2.556-0.252-3.348-0.575
		l0.468-2.557c0.648,0.252,1.584,0.469,2.628,0.469c2.808,0,4.463-1.26,4.463-6.012V58.739z"/>
	<path fill="#666666" d="M146.713,74.145c0,6.443-4.463,9.251-8.674,9.251c-4.715,0-8.351-3.455-8.351-8.962
		c0-5.832,3.815-9.252,8.639-9.252C143.33,65.182,146.713,68.818,146.713,74.145z M132.891,74.325c0,3.815,2.196,6.695,5.292,6.695
		c3.023,0,5.292-2.844,5.292-6.768c0-2.952-1.477-6.694-5.22-6.694C134.511,67.559,132.891,71.014,132.891,74.325z"/>
	<path fill="#666666" d="M165.289,78.248c0,1.801,0.036,3.384,0.145,4.752h-2.809l-0.18-2.844h-0.072
		c-0.827,1.404-2.663,3.239-5.759,3.239c-2.735,0-6.011-1.512-6.011-7.63V65.578h3.168v9.646c0,3.313,1.008,5.543,3.887,5.543
		c2.124,0,3.6-1.475,4.176-2.879c0.18-0.468,0.287-1.044,0.287-1.619V65.578h3.168V78.248z"/>
	<path fill="#666666" d="M170.547,71.014c0-2.052-0.035-3.816-0.144-5.436h2.771l0.108,3.42h0.144c0.792-2.34,2.7-3.816,4.823-3.816
		c0.359,0,0.612,0.037,0.9,0.108v2.987c-0.324-0.071-0.648-0.107-1.08-0.107c-2.232,0-3.815,1.691-4.248,4.067
		c-0.072,0.433-0.144,0.937-0.144,1.476V83h-3.132V71.014z"/>
	<path fill="#666666" d="M190.059,58.739h13.066v2.628h-9.935v8.063h9.179v2.592h-9.179V83h-3.132V58.739z"/>
	<path fill="#666666" d="M210.075,60.683c0.036,1.08-0.756,1.944-2.016,1.944c-1.116,0-1.908-0.864-1.908-1.944
		c0-1.116,0.828-1.979,1.98-1.979C209.319,58.703,210.075,59.567,210.075,60.683z M206.548,83V65.578h3.167V83H206.548z"/>
	<path fill="#666666" d="M216.447,65.578l2.483,3.744c0.648,0.971,1.188,1.871,1.764,2.844h0.108
		c0.576-1.045,1.151-1.944,1.728-2.881l2.448-3.707h3.419l-5.939,8.423l6.12,8.999h-3.6l-2.556-3.924
		c-0.685-1.008-1.26-1.979-1.872-3.023h-0.072c-0.576,1.044-1.188,1.98-1.836,3.023L216.123,83h-3.491l6.191-8.891l-5.903-8.531
		H216.447z"/>
	<path fill="#666666" d="M232.862,74.865c0.072,4.283,2.808,6.047,5.976,6.047c2.268,0,3.635-0.396,4.823-0.9l0.54,2.269
		c-1.116,0.504-3.024,1.08-5.796,1.08c-5.363,0-8.566-3.528-8.566-8.783s3.096-9.396,8.171-9.396c5.688,0,7.199,5.004,7.199,8.207
		c0,0.648-0.072,1.152-0.108,1.477H232.862z M242.149,72.598c0.035-2.016-0.828-5.147-4.392-5.147c-3.204,0-4.607,2.951-4.859,5.147
		H242.149z"/>
</g>
<g>
	<path fill="#666666" d="M11.69,113L7.585,96.822h2.208l1.92,8.185c0.48,2.017,0.912,4.033,1.2,5.593h0.048
		c0.264-1.608,0.768-3.528,1.32-5.616l2.16-8.161h2.184l1.968,8.209c0.456,1.92,0.888,3.841,1.128,5.545h0.048
		c0.336-1.776,0.792-3.577,1.296-5.593l2.136-8.161h2.136L22.755,113h-2.184l-2.04-8.425c-0.504-2.064-0.84-3.648-1.056-5.28h-0.048
		c-0.288,1.608-0.648,3.192-1.248,5.28L13.874,113H11.69z"/>
	<path fill="#666666" d="M29.666,107.575c0.048,2.856,1.872,4.032,3.984,4.032c1.512,0,2.424-0.264,3.216-0.6l0.36,1.512
		c-0.744,0.337-2.016,0.721-3.864,0.721c-3.576,0-5.712-2.353-5.712-5.856c0-3.505,2.064-6.265,5.448-6.265
		c3.792,0,4.801,3.336,4.801,5.473c0,0.432-0.048,0.768-0.072,0.983H29.666z M35.858,106.063c0.024-1.344-0.552-3.433-2.928-3.433
		c-2.136,0-3.072,1.969-3.24,3.433H35.858z"/>
	<path fill="#666666" d="M40.418,113c0.048-0.792,0.096-1.968,0.096-3V95.959h2.088v7.296h0.048c0.744-1.296,2.088-2.136,3.96-2.136
		c2.88,0,4.92,2.4,4.896,5.929c0,4.152-2.616,6.216-5.208,6.216c-1.68,0-3.024-0.647-3.888-2.184h-0.072L42.242,113H40.418z
		 M42.602,108.344c0,0.264,0.048,0.528,0.096,0.768c0.408,1.465,1.632,2.473,3.168,2.473c2.208,0,3.528-1.8,3.528-4.465
		c0-2.328-1.2-4.32-3.456-4.32c-1.44,0-2.784,0.984-3.216,2.593c-0.048,0.24-0.12,0.527-0.12,0.864V108.344z"/>
	<path fill="#666666" d="M54.842,101.383l1.536,5.904c0.336,1.297,0.648,2.497,0.864,3.696h0.072
		c0.264-1.176,0.648-2.424,1.032-3.672l1.896-5.929h1.776l1.8,5.809c0.432,1.393,0.768,2.616,1.032,3.792h0.072
		c0.192-1.176,0.504-2.399,0.888-3.768l1.656-5.833h2.088L65.811,113h-1.92l-1.776-5.545c-0.408-1.296-0.744-2.448-1.032-3.815
		h-0.048c-0.288,1.392-0.648,2.592-1.056,3.84L58.106,113h-1.92l-3.504-11.617H54.842z"/>
	<path fill="#666666" d="M72.602,107.575c0.048,2.856,1.872,4.032,3.984,4.032c1.512,0,2.424-0.264,3.216-0.6l0.36,1.512
		c-0.744,0.337-2.016,0.721-3.864,0.721c-3.576,0-5.712-2.353-5.712-5.856c0-3.505,2.064-6.265,5.448-6.265
		c3.792,0,4.801,3.336,4.801,5.473c0,0.432-0.048,0.768-0.072,0.983H72.602z M78.794,106.063c0.024-1.344-0.552-3.433-2.928-3.433
		c-2.136,0-3.072,1.969-3.24,3.433H78.794z"/>
	<path fill="#666666" d="M83.449,105.007c0-1.367-0.024-2.544-0.096-3.624h1.848l0.072,2.28h0.096c0.528-1.56,1.8-2.544,3.216-2.544
		c0.24,0,0.408,0.023,0.6,0.072v1.992c-0.216-0.049-0.432-0.072-0.72-0.072c-1.488,0-2.544,1.128-2.832,2.712
		c-0.048,0.288-0.096,0.624-0.096,0.984V113h-2.088V105.007z"/>
	<path fill="#666666" d="M93.481,106.712h0.048c0.288-0.408,0.696-0.912,1.032-1.32l3.408-4.009h2.544l-4.488,4.776l5.112,6.841
		H98.57l-4.008-5.568l-1.08,1.2V113h-2.088V95.959h2.088V106.712z"/>
</g>
</svg>
