<svg version="1.1" xmlns="http://www.w3.org/2000/svg" xmlns:xlink="http://www.w3.org/1999/xlink">

  <defs>
    <style>
      g {
        display: none;
      }
      g:target,
      g:target g {
        display: inline;
      }
      .blue {
        color: #004289;
      }
      .weiss {
        color: #ffffff;
      }
    </style>

    <symbol id="menu" viewBox="0 0 35 28">
      <title>Menü</title>

      <rect opacity="0.9" fill="currentColor" width="35" height="6"/>
      <rect y="11" opacity="0.9" fill="currentColor" width="35" height="6"/>
      <rect y="22" opacity="0.9" fill="currentColor" width="35" height="6"/>
    </symbol>

    <symbol id="cross" viewBox="0 0 30 29.937">
      <title>close</title>
      <path fill="currentColor" d="M17.819,14.929L30,27.176l-2.818,2.761L15.001,17.756L2.819,29.937L0,27.176l12.244-12.247
  			L0,2.756L2.819,0l12.182,12.174L27.182,0L30,2.756L17.819,14.929z"/>
    </symbol>

    <symbol id="search" viewBox="-64.326 -29.806 75 75">
      <title>Search</title>
      <path fill="currentColor" d="M-12.845 2.039c0-5.406-1.923-10.031-5.761-13.869-3.838-3.839-8.466-5.764-13.87-5.764-5.398 0-10.026 1.924-13.861 5.764-3.844 3.838-5.765 8.462-5.765 13.869 0 5.398 1.921 10.027 5.765 13.867 3.835 3.84 8.462 5.759 13.861 5.759 5.404 0 10.032-1.919 13.87-5.759 3.837-3.84 5.761-8.468 5.761-13.867zM9.589 38.494c0 1.52-.558 2.833-1.668 3.942-1.105 1.112-2.421 1.667-3.942 1.667-1.574 0-2.892-.555-3.942-1.667l-15.034-14.981c-5.227 3.621-11.056 5.428-17.484 5.428-4.173 0-8.167-.807-11.979-2.426-3.815-1.624-7.098-3.815-9.857-6.572-2.764-2.763-4.953-6.049-6.574-9.865a30.273 30.273 0 0 1-2.433-11.978c0-4.179.813-8.173 2.433-11.985 1.616-3.81 3.81-7.101 6.574-9.857 2.76-2.763 6.045-4.951 9.857-6.574a30.28 30.28 0 0 1 11.979-2.431c4.181 0 8.175.808 11.984 2.431 3.817 1.623 7.1 3.812 9.857 6.574 2.767 2.756 4.956 6.047 6.58 9.857A30.386 30.386 0 0 1-1.63 2.042c0 6.423-1.814 12.251-5.434 17.481L7.963 34.551c1.086 1.08 1.626 2.396 1.626 3.943z"/>
    </symbol>

    <symbol id="phone" viewBox="-64.326 -29.806 75 75">
      <title>phone</title>
      <path fill="currentColor" d="M10.491 29.322c0 .952-.18 2.198-.529 3.736-.359 1.537-.727 2.746-1.113 3.628-.743 1.77-2.899 3.643-6.47 5.62-3.32 1.802-6.606 2.703-9.862 2.703-.954 0-1.889-.061-2.807-.184a22.006 22.006 0 0 1-3.045-.662 53.259 53.259 0 0 1-2.497-.768c-.542-.197-1.529-.56-2.937-1.089-1.417-.529-2.281-.85-2.599-.952-3.46-1.239-6.557-2.705-9.274-4.4-4.488-2.791-9.157-6.611-13.995-11.449-4.841-4.841-8.659-9.505-11.452-13.994-1.692-2.721-3.161-5.813-4.396-9.275-.105-.317-.426-1.185-.956-2.597a205.58 205.58 0 0 1-1.085-2.942c-.198-.55-.453-1.38-.769-2.493a21.704 21.704 0 0 1-.666-3.049 21.843 21.843 0 0 1-.183-2.808c0-3.25.902-6.539 2.701-9.858 1.976-3.57 3.853-5.725 5.613-6.47.889-.387 2.1-.756 3.638-1.112 1.532-.351 2.781-.529 3.735-.529.495 0 .867.056 1.112.161.636.212 1.573 1.554 2.809 4.026.387.672.917 1.624 1.592 2.863a252.09 252.09 0 0 0 1.855 3.365 101.076 101.076 0 0 0 1.646 2.836c.1.142.414.583.924 1.326.514.741.893 1.369 1.142 1.881.244.514.371 1.016.371 1.511 0 .704-.506 1.591-1.513 2.651a25.593 25.593 0 0 1-3.288 2.915 32.16 32.16 0 0 0-3.284 2.809c-1.009.988-1.513 1.802-1.513 2.439 0 .316.091.715.268 1.191.177.478.326.84.451 1.087.12.246.37.672.741 1.273.372.6.578.937.609 1.006 2.688 4.842 5.761 8.991 9.227 12.46 3.463 3.458 7.611 6.536 12.453 9.218.07.038.407.243 1.012.612.597.375 1.021.619 1.272.744.248.122.604.271 1.088.448.468.18.872.264 1.193.264.634 0 1.447-.502 2.433-1.509a31.578 31.578 0 0 0 2.808-3.286 26.671 26.671 0 0 1 2.915-3.289c1.064-1.004 1.948-1.509 2.651-1.509.499 0 .997.122 1.511.372.513.248 1.14.626 1.883 1.137.744.514 1.182.826 1.324.932.884.529 1.833 1.076 2.837 1.641 1.009.566 2.123 1.186 3.363 1.856A158.37 158.37 0 0 1 6.3 25.397c2.475 1.239 3.816 2.177 4.029 2.811.108.247.162.62.162 1.114z"/>
    </symbol>
    <symbol id="logout" viewBox="858.5 0 75 75">
    <path fill="currentColor" d="M889.112,69.375c0,0.156,0.016,0.547,0.049,1.172c0.031,0.625,0.039,1.143,0.023,1.553
    	s-0.064,0.869-0.144,1.377s-0.239,0.889-0.479,1.143S887.997,75,887.582,75h-15.306c-3.795,0-7.039-1.65-9.734-4.951
    	c-2.694-3.301-4.042-7.275-4.042-11.924v-41.25c0-4.648,1.347-8.623,4.042-11.924C865.237,1.65,868.481,0,872.276,0h15.306
    	c0.415,0,0.773,0.186,1.076,0.557c0.304,0.371,0.454,0.811,0.454,1.318c0,0.156,0.016,0.547,0.049,1.172
    	c0.031,0.625,0.039,1.143,0.023,1.553s-0.064,0.869-0.144,1.377s-0.239,0.889-0.479,1.143s-0.565,0.381-0.98,0.381h-15.306
    	c-2.105,0-3.906,0.918-5.405,2.754s-2.248,4.043-2.248,6.621v41.25c0,2.578,0.749,4.785,2.248,6.621s3.3,2.754,5.405,2.754H887.2
    	l0.549,0.059l0.551,0.176l0.383,0.322l0.334,0.527L889.112,69.375z M933.5,37.5c0,1.016-0.303,1.895-0.908,2.637L906.57,72.012
    	c-0.605,0.742-1.322,1.113-2.152,1.113c-0.828,0-1.547-0.371-2.152-1.113s-0.908-1.621-0.908-2.637V52.5h-21.429
    	c-0.828,0-1.547-0.371-2.152-1.113s-0.908-1.621-0.908-2.637v-22.5c0-1.016,0.303-1.895,0.908-2.637s1.324-1.113,2.152-1.113h21.429
    	V5.625c0-1.016,0.303-1.895,0.908-2.637s1.324-1.113,2.152-1.113c0.83,0,1.547,0.371,2.152,1.113l26.021,31.875
    	C933.197,35.605,933.5,36.484,933.5,37.5z"/>
    </symbol>
<symbol id="video" viewBox="0 0 76 76">
    <path fill="currentColor" d="M71.765,16.889c-0.818,0-1.649,0.238-2.401,0.752l-14.475,9.223v-7.89c0-3.483-3.061-6.307-6.834-6.307H6.835
	C3.061,12.667,0,15.49,0,18.974v38.053c0,3.483,3.061,6.308,6.835,6.308h41.22c3.773,0,6.834-2.824,6.834-6.308v-7.89l14.461,9.223
	c0.752,0.527,1.597,0.752,2.402,0.752c2.189,0,4.234-1.715,4.234-4.156v-33.91C76,18.604,73.955,16.889,71.765,16.889z
	 M50.666,57.026c0,1.135-1.2,2.085-2.611,2.085H6.835c-1.412,0-2.613-0.95-2.613-2.085V18.974c0-1.135,1.201-2.085,2.613-2.085
	h41.22c1.411,0,2.611,0.95,2.611,2.085V57.026L50.666,57.026z M71.777,54.955l-0.158-0.172l-16.73-10.661V31.865l16.889-10.753
	V54.955z"/>
      </symbol>
    <symbol id="login-2" viewBox="0 0 76 76">
      <title>login</title>
      <path fill="currentColor" d="M38,38c10.494,0,19-8.505,19-19S48.494,0,38,0C27.505,0,19,8.505,19,19S27.505,38,38,38z M51.3,42.75h-2.479
      	c-3.296,1.514-6.962,2.375-10.821,2.375s-7.511-0.861-10.821-2.375H24.7c-11.014,0-19.95,8.936-19.95,19.95v6.175
      	C4.75,72.809,7.941,76,11.875,76h52.25c3.934,0,7.125-3.191,7.125-7.125V62.7C71.25,51.686,62.314,42.75,51.3,42.75z"/>
  </symbol>

    <symbol id="minus" viewBox="0 0 76 76">
      <title>minus</title>
      <path fill="currentColor" d="M20.781,40.672c-0.979,0-1.781-0.802-1.781-1.781v-1.781c0-0.979,0.802-1.781,1.781-1.781h34.438
      	c0.979,0,1.781,0.802,1.781,1.781v1.781c0,0.979-0.802,1.781-1.781,1.781H20.781z M74.813,38c0,20.336-16.477,36.813-36.813,36.813
      	S1.188,58.336,1.188,38S17.664,1.188,38,1.188S74.813,17.664,74.813,38z M70.063,38C70.063,20.202,55.619,5.938,38,5.938
      	C20.202,5.938,5.938,20.38,5.938,38C5.938,55.798,20.38,70.063,38,70.063C55.798,70.063,70.063,55.619,70.063,38z"/>
  </symbol>

    <symbol id="plus" viewBox="0 0 76 76">
      <title>plus</title>
      <path fill="currentColor" d="M57,37.109v1.781c0,0.979-0.802,1.781-1.781,1.781H40.672v14.547c0,0.979-0.802,1.781-1.781,1.781h-1.781
      	c-0.979,0-1.781-0.802-1.781-1.781V40.672H20.781c-0.979,0-1.781-0.802-1.781-1.781v-1.781c0-0.979,0.802-1.781,1.781-1.781h14.547
      	V20.781c0-0.979,0.802-1.781,1.781-1.781h1.781c0.979,0,1.781,0.802,1.781,1.781v14.547h14.547C56.198,35.328,57,36.13,57,37.109z
      	 M74.813,38c0,20.336-16.477,36.813-36.813,36.813S1.188,58.336,1.188,38S17.664,1.188,38,1.188S74.813,17.664,74.813,38z
      	 M70.063,38C70.063,20.202,55.619,5.938,38,5.938C20.202,5.938,5.938,20.38,5.938,38C5.938,55.798,20.38,70.063,38,70.063
      	C55.798,70.063,70.063,55.619,70.063,38z"/></symbol>

    <symbol id="contrast1" viewBox="-64.326 -29.806 75 75">
      <title>contrast1</title>
      <path fill="none" stroke="currentColor" stroke-width="2" stroke-miterlimit="10" d="M-62.365-28.022h47.106V16.73h-47.106z"/><path fill="currentColor" d="M-36.456-4.468h44.75v47.107h-44.75z"/>
    </symbol>


    <symbol id="contrast2" viewBox="896.5 207.241 160 160">
      <title>darstellung2</title>
      <path fill="currentColor" d="M-63.325-28.668h45v45h-45z"/><path fill="#FFF" stroke="currentColor" stroke-width="2" stroke-miterlimit="10" d="M-36.053-1.315h45v45h-45z"/>
    </symbol>

    <symbol id="info" viewBox="0 0 76 76">
      <title>info</title>
      <path fill="currentColor" d="M64.125,4.75h-52.25c-3.935,0-7.125,3.19-7.125,7.125v52.25c0,3.936,3.19,7.125,7.125,7.125h52.25
      	c3.936,0,7.125-3.189,7.125-7.125v-52.25C71.25,7.94,68.061,4.75,64.125,4.75z M66.5,64.125c0,1.31-1.065,2.375-2.375,2.375h-52.25
      	c-1.31,0-2.375-1.065-2.375-2.375v-52.25c0-1.31,1.065-2.375,2.375-2.375h52.25c1.31,0,2.375,1.065,2.375,2.375V64.125z
      	 M32.656,52.25h1.781V34.438h-1.781c-0.984,0-1.781-0.797-1.781-1.781v-1.188c0-0.984,0.797-1.781,1.781-1.781h7.125
      	c0.984,0,1.781,0.797,1.781,1.781V52.25h1.781c0.984,0,1.781,0.797,1.781,1.781v1.188c0,0.984-0.797,1.781-1.781,1.781H32.656
      	c-0.984,0-1.781-0.797-1.781-1.781v-1.188C30.875,53.047,31.672,52.25,32.656,52.25z M38,16.625c-2.624,0-4.75,2.126-4.75,4.75
      	s2.126,4.75,4.75,4.75c2.623,0,4.75-2.126,4.75-4.75S40.623,16.625,38,16.625z"/>

      </symbol>

      <symbol id="list" viewBox="0 0 76 76">
        <path fill="currentColor" d="M68.875,9.5c1.31,0,2.375,1.065,2.375,2.375v52.25c0,1.31-1.065,2.375-2.375,2.375H7.125c-1.31,0-2.375-1.065-2.375-2.375
        	v-52.25c0-1.31,1.065-2.375,2.375-2.375H68.875 M68.875,4.75H7.125C3.19,4.75,0,7.94,0,11.875v52.25c0,3.936,3.19,7.125,7.125,7.125
        	h61.75c3.936,0,7.125-3.189,7.125-7.125v-52.25C76,7.94,72.811,4.75,68.875,4.75z M19,19c-2.624,0-4.75,2.126-4.75,4.75
        	S16.376,28.5,19,28.5s4.75-2.126,4.75-4.75S21.624,19,19,19z M19,33.25c-2.624,0-4.75,2.126-4.75,4.75c0,2.623,2.126,4.75,4.75,4.75
        	s4.75-2.127,4.75-4.75C23.75,35.376,21.624,33.25,19,33.25z M19,47.5c-2.624,0-4.75,2.127-4.75,4.75S16.376,57,19,57
        	s4.75-2.127,4.75-4.75S21.624,47.5,19,47.5z M61.75,25.531v-3.563c0-0.492-0.398-0.891-0.891-0.891H29.391
        	c-0.492,0-0.891,0.399-0.891,0.891v3.563c0,0.492,0.399,0.891,0.891,0.891h31.469C61.352,26.422,61.75,26.023,61.75,25.531z
        	 M61.75,39.781v-3.563c0-0.492-0.398-0.891-0.891-0.891l0,0H29.391c-0.492,0-0.891,0.399-0.891,0.891l0,0v3.563
        	c0,0.492,0.399,0.891,0.891,0.891h31.469C61.352,40.672,61.75,40.273,61.75,39.781z M61.75,54.031v-3.563
        	c0-0.492-0.398-0.891-0.891-0.891H29.391c-0.492,0-0.891,0.398-0.891,0.891v3.563c0,0.492,0.399,0.891,0.891,0.891h31.469
        	C61.352,54.922,61.75,54.523,61.75,54.031z"/></symbol>
    <symbol id="link" viewBox="0 0 76 76">
      <title>link</title>
      <path fill="currentColor" d="M71.777,4.222h-0.007L59.082,4.244c-3.753,0.007-5.629,4.557-2.979,7.208l4.654,4.654L21.575,55.289
      	c-0.618,0.618-0.618,1.621,0,2.238l1.12,1.12c0.618,0.618,1.621,0.618,2.239,0l39.183-39.183l4.653,4.654
      	c2.643,2.642,7.202,0.789,7.209-2.979L76,8.452C76.004,6.116,74.109,4.222,71.777,4.222z M71.756,21.133L59.089,8.466l12.688-0.022
      	L71.756,21.133z M59.111,34.264v31.181c0,3.498-2.836,6.333-6.334,6.333H6.333C2.835,71.777,0,68.942,0,65.444V19
      	c0-3.498,2.835-6.333,6.333-6.333H49.08c0.42,0,0.822,0.167,1.119,0.464l1.057,1.056c0.997,0.998,0.291,2.703-1.12,2.703H6.333
      	c-1.166,0-2.111,0.945-2.111,2.111v46.444c0,1.166,0.945,2.111,2.111,2.111h46.444c1.166,0,2.111-0.945,2.111-2.111V35.319
      	c0-0.42,0.167-0.823,0.464-1.12l1.056-1.056C57.406,32.146,59.111,32.853,59.111,34.264z"/>
  </symbol>
    <symbol id="pdf" viewBox="0 0 76 76">
      <title>pdf</title>
      <path fill="currentColor" d="M64.407,14.532L51.953,2.078c-1.336-1.336-3.146-2.093-5.032-2.093H16.625C12.691,0,9.5,3.191,9.5,7.125v61.75
      	C9.5,72.809,12.691,76,16.625,76h42.75c3.934,0,7.125-3.191,7.125-7.125V19.579C66.5,17.694,65.743,15.868,64.407,14.532z
      	 M61.053,17.901c0.312,0.312,0.52,0.683,0.623,1.099H47.5V4.824c0.416,0.104,0.787,0.312,1.099,0.624L61.053,17.901z M59.375,71.25
      	h-42.75c-1.306,0-2.375-1.068-2.375-2.375V7.125c0-1.306,1.069-2.375,2.375-2.375H42.75v15.438c0,1.974,1.588,3.563,3.563,3.563
      	H61.75v45.125C61.75,70.182,60.682,71.25,59.375,71.25z M56.109,45.838c-2.004-1.975-8.164-1.366-10.939-0.995
      	c-3.147-1.899-5.226-4.513-6.695-8.401c0.638-2.672,1.781-7.006,0.95-9.634c-0.653-4.171-5.893-3.666-6.62-1.009
      	c-0.742,2.716-0.044,6.591,1.247,11.548c-1.767,4.216-4.409,9.931-6.25,13.151c-3.087,1.589-8.03,4.35-8.728,7.778
      	c-0.52,2.494,3.399,5.849,7.882,0.95c1.351-1.47,2.865-3.682,4.646-6.754c3.963-1.307,8.327-2.939,12.172-3.563
      	c3.251,1.781,7.065,2.954,9.589,2.954C57.475,51.879,57.653,47.381,56.109,45.838z M22.087,59.049
      	c0.876-2.36,4.246-5.106,5.27-6.057C24.077,58.232,22.087,59.152,22.087,59.049z M36.219,26.051c1.292,0,1.158,5.566,0.312,7.065
      	C35.759,30.697,35.788,26.051,36.219,26.051z M32.003,49.697c1.678-2.939,3.117-6.413,4.275-9.456c1.439,2.628,3.28,4.706,5.21,6.16
      	C37.881,47.1,34.749,48.643,32.003,49.697z M54.773,48.821c0,0-0.861,1.039-6.457-1.351C54.402,47.025,55.396,48.42,54.773,48.821z"
      	/>
    </symbol>
    <symbol id="file" viewBox="0 0 76 76">
      <path fill="currentColor" d="M64.407,14.532L51.953,2.078c-1.336-1.336-3.146-2.093-5.032-2.093H16.625C12.691,0,9.5,3.191,9.5,7.125v61.75
      	C9.5,72.809,12.691,76,16.625,76h42.75c3.934,0,7.125-3.191,7.125-7.125V19.579C66.5,17.694,65.743,15.868,64.407,14.532z
      	 M61.053,17.901c0.312,0.312,0.52,0.683,0.623,1.099H47.5V4.824c0.416,0.104,0.787,0.312,1.099,0.624L61.053,17.901z M59.375,71.25
      	h-42.75c-1.306,0-2.375-1.068-2.375-2.375V7.125c0-1.306,1.069-2.375,2.375-2.375H42.75v15.438c0,1.974,1.588,3.563,3.563,3.563
      	H61.75v45.125C61.75,70.182,60.682,71.25,59.375,71.25z M52.25,35.031v1.188c0,0.979-0.802,1.781-1.781,1.781H25.531
      	c-0.979,0-1.781-0.802-1.781-1.781v-1.188c0-0.979,0.802-1.781,1.781-1.781h24.938C51.448,33.25,52.25,34.052,52.25,35.031z
      	 M52.25,44.531v1.188c0,0.979-0.802,1.781-1.781,1.781H25.531c-0.979,0-1.781-0.802-1.781-1.781v-1.188
      	c0-0.979,0.802-1.781,1.781-1.781h24.938C51.448,42.75,52.25,43.552,52.25,44.531z M52.25,54.031v1.188
      	c0,0.979-0.802,1.781-1.781,1.781H25.531c-0.979,0-1.781-0.802-1.781-1.781v-1.188c0-0.979,0.802-1.781,1.781-1.781h24.938
      	C51.448,52.25,52.25,53.052,52.25,54.031z"/></symbol>
  </defs>


</svg>
